<mxfile>
    <diagram id="YC54IFQ6m4zRGCP_P3mb" name="Page-1">
        <mxGraphModel dx="621" dy="471" grid="0" gridSize="10" guides="1" tooltips="1" connect="1" arrows="1" fold="1" page="1" pageScale="1" pageWidth="827" pageHeight="1169" math="0" shadow="0">
            <root>
                <mxCell id="0"/>
                <mxCell id="1" parent="0"/>
                <mxCell id="2" value="&lt;font face=&quot;Ubuntu Mono&quot; style=&quot;font-size: 36px&quot;&gt;ALU&lt;/font&gt;" style="rounded=0;whiteSpace=wrap;html=1;" vertex="1" parent="1">
                    <mxGeometry x="354" y="130" width="120" height="170" as="geometry"/>
                </mxCell>
                <mxCell id="3" value="&lt;font style=&quot;font-size: 20px&quot; face=&quot;Ubuntu Mono&quot;&gt;ForwardAE&lt;br&gt;MUX&lt;/font&gt;" style="rounded=0;whiteSpace=wrap;html=1;" vertex="1" parent="1">
                    <mxGeometry x="120" y="50" width="120" height="220" as="geometry"/>
                </mxCell>
                <mxCell id="4" value="" style="endArrow=none;html=1;strokeWidth=5;" edge="1" parent="1">
                    <mxGeometry width="50" height="50" relative="1" as="geometry">
                        <mxPoint x="474" y="224.5" as="sourcePoint"/>
                        <mxPoint x="574" y="225" as="targetPoint"/>
                    </mxGeometry>
                </mxCell>
                <mxCell id="5" value="" style="endArrow=none;html=1;strokeWidth=5;entryX=0;entryY=0.295;entryDx=0;entryDy=0;entryPerimeter=0;" edge="1" parent="1" target="2">
                    <mxGeometry width="50" height="50" relative="1" as="geometry">
                        <mxPoint x="240" y="180" as="sourcePoint"/>
                        <mxPoint x="320" y="180" as="targetPoint"/>
                    </mxGeometry>
                </mxCell>
                <mxCell id="6" value="&lt;font face=&quot;Ubuntu Mono&quot; style=&quot;font-size: 14px&quot; color=&quot;#ff3333&quot;&gt;Delay: ???&lt;/font&gt;" style="text;html=1;strokeColor=none;fillColor=none;align=center;verticalAlign=middle;whiteSpace=wrap;rounded=0;" vertex="1" parent="1">
                    <mxGeometry x="480" y="230" width="80" height="20" as="geometry"/>
                </mxCell>
                <mxCell id="7" value="&lt;font face=&quot;Ubuntu Mono&quot; style=&quot;font-size: 14px&quot;&gt;Delay: High&lt;/font&gt;" style="text;html=1;strokeColor=none;fillColor=none;align=center;verticalAlign=middle;whiteSpace=wrap;rounded=0;fontColor=#FF0000;" vertex="1" parent="1">
                    <mxGeometry x="250" y="150" width="90" height="20" as="geometry"/>
                </mxCell>
                <mxCell id="8" value="" style="endArrow=none;html=1;strokeWidth=5;" edge="1" parent="1">
                    <mxGeometry width="50" height="50" relative="1" as="geometry">
                        <mxPoint x="20" y="89" as="sourcePoint"/>
                        <mxPoint x="120" y="89.5" as="targetPoint"/>
                    </mxGeometry>
                </mxCell>
                <mxCell id="9" value="" style="endArrow=none;html=1;strokeWidth=5;" edge="1" parent="1">
                    <mxGeometry width="50" height="50" relative="1" as="geometry">
                        <mxPoint x="20" y="163" as="sourcePoint"/>
                        <mxPoint x="120" y="163.5" as="targetPoint"/>
                    </mxGeometry>
                </mxCell>
                <mxCell id="10" value="" style="endArrow=none;html=1;strokeWidth=5;" edge="1" parent="1">
                    <mxGeometry width="50" height="50" relative="1" as="geometry">
                        <mxPoint x="20" y="229" as="sourcePoint"/>
                        <mxPoint x="120" y="229.5" as="targetPoint"/>
                    </mxGeometry>
                </mxCell>
                <mxCell id="11" value="&lt;font face=&quot;Ubuntu Mono&quot; style=&quot;font-size: 14px&quot;&gt;Delay: Low&lt;/font&gt;" style="text;html=1;strokeColor=none;fillColor=none;align=center;verticalAlign=middle;whiteSpace=wrap;rounded=0;" vertex="1" parent="1">
                    <mxGeometry x="24" y="98" width="90" height="20" as="geometry"/>
                </mxCell>
                <mxCell id="12" value="&lt;font face=&quot;Ubuntu Mono&quot; style=&quot;font-size: 14px&quot;&gt;From &lt;br&gt;PipeReg E&lt;/font&gt;" style="text;html=1;strokeColor=none;fillColor=none;align=center;verticalAlign=middle;whiteSpace=wrap;rounded=0;" vertex="1" parent="1">
                    <mxGeometry x="24" y="58" width="90" height="20" as="geometry"/>
                </mxCell>
                <mxCell id="13" value="&lt;font face=&quot;Ubuntu Mono&quot; style=&quot;font-size: 14px&quot;&gt;Delay: High&lt;/font&gt;" style="text;html=1;strokeColor=none;fillColor=none;align=center;verticalAlign=middle;whiteSpace=wrap;rounded=0;" vertex="1" parent="1">
                    <mxGeometry x="20" y="170" width="90" height="20" as="geometry"/>
                </mxCell>
                <mxCell id="14" value="&lt;font face=&quot;Ubuntu Mono&quot; style=&quot;font-size: 14px&quot;&gt;From Memory&lt;/font&gt;" style="text;html=1;strokeColor=none;fillColor=none;align=center;verticalAlign=middle;whiteSpace=wrap;rounded=0;" vertex="1" parent="1">
                    <mxGeometry x="24" y="134" width="90" height="20" as="geometry"/>
                </mxCell>
                <mxCell id="15" value="&lt;font face=&quot;Ubuntu Mono&quot; style=&quot;font-size: 14px&quot;&gt;From &lt;br&gt;PipeReg W&lt;/font&gt;" style="text;html=1;strokeColor=none;fillColor=none;align=center;verticalAlign=middle;whiteSpace=wrap;rounded=0;" vertex="1" parent="1">
                    <mxGeometry x="20" y="200" width="90" height="20" as="geometry"/>
                </mxCell>
                <mxCell id="16" value="&lt;font face=&quot;Ubuntu Mono&quot; style=&quot;font-size: 14px&quot;&gt;Delay: Medium&lt;/font&gt;" style="text;html=1;strokeColor=none;fillColor=none;align=center;verticalAlign=middle;whiteSpace=wrap;rounded=0;" vertex="1" parent="1">
                    <mxGeometry x="17" y="240" width="98" height="20" as="geometry"/>
                </mxCell>
            </root>
        </mxGraphModel>
    </diagram>
</mxfile>